<?xml version="1.0" encoding="utf-8"?>
<!-- Generator: Adobe Illustrator 24.3.0, SVG Export Plug-In . SVG Version: 6.00 Build 0)  -->
<svg version="1.1" id="Layer_1" xmlns="http://www.w3.org/2000/svg" xmlns:xlink="http://www.w3.org/1999/xlink" x="0px" y="0px"
	 viewBox="0 0 50 50" style="enable-background:new 0 0 50 50;" xml:space="preserve">
<style type="text/css">
	.st0{fill:#673DD6;}
	.st1{fill:#FFFFFF;}
</style>
<path class="st0" d="M36,4H14C8.5,4,4,8.5,4,14v22c0,5.5,4.5,10,10,10h22c5.5,0,10-4.5,10-10V14C46,8.5,41.5,4,36,4z M34.6,37
	c-0.6,0-7.2,0.8-14.8-6.8C12.2,22.7,13,16,13,15.4c0-0.8,1.4-3.6,5-3.4c0.6,0,1.2,0.4,1.5,0.9c0.4,0.6,1,1.6,1.8,2.8
	c0.7,1.1,0.8,2.6,0.1,3.8L20,21.7c-0.4,0.6-0.5,1.3-0.2,1.9c0.4,1,1.2,2.5,2.6,3.9c1.4,1.4,2.9,2.2,3.9,2.6c0.6,0.3,1.4,0.2,1.9-0.2
	l2.1-1.5c1.2-0.7,2.7-0.6,3.8,0.1c1.3,0.8,2.2,1.4,2.8,1.8c0.6,0.3,0.9,0.9,0.9,1.5C38.1,35.6,35.4,37,34.6,37z"/>
<path class="st1" d="M38,32c0.2,3.6-2.6,5-3.4,5c-0.6,0-7.2,0.8-14.8-6.8C12.2,22.7,13,16,13,15.4c0-0.8,1.4-3.6,5-3.4
	c0.6,0,1.2,0.4,1.5,0.9c0.4,0.6,1,1.6,1.8,2.8c0.7,1.1,0.8,2.6,0.1,3.8L20,21.7c-0.4,0.6-0.5,1.3-0.2,1.9c0.4,1,1.2,2.5,2.6,3.9
	c1.4,1.4,2.9,2.2,3.9,2.6c0.6,0.3,1.4,0.2,1.9-0.2l2.1-1.5c1.2-0.7,2.7-0.6,3.8,0.1c1.3,0.8,2.2,1.4,2.8,1.8
	C37.6,30.8,37.9,31.4,38,32z"/>
</svg>
