<?xml version="1.0" encoding="utf-8"?>
<!-- Generator: Adobe Illustrator 24.3.0, SVG Export Plug-In . SVG Version: 6.00 Build 0)  -->
<svg version="1.1" id="Layer_1" xmlns="http://www.w3.org/2000/svg" xmlns:xlink="http://www.w3.org/1999/xlink" x="0px" y="0px"
	 viewBox="0 0 50 50" style="enable-background:new 0 0 50 50;" xml:space="preserve">
<style type="text/css">
	.st0{fill:#673DD6;}
	.st1{fill:#FFFFFF;}
</style>
<path class="st0" d="M36,4H14C8.5,4,4,8.5,4,14v22c0,5.5,4.5,10,10,10h22c5.5,0,10-4.5,10-10V14C46,8.5,41.5,4,36,4z M13,16h24
	c0.2,0,0.3,0,0.5,0.1l-9.8,9.8c-1.5,1.5-3.9,1.5-5.4,0l-9.8-9.8C12.7,16,12.8,16,13,16z M11,32V18c0-0.2,0-0.3,0.1-0.5l7.5,7.5
	l-7.5,7.5C11,32.3,11,32.2,11,32z M37,34H13c-0.2,0-0.3,0-0.5-0.1l7.5-7.5l0.9,0.9C22,28.4,23.5,29,25,29c1.5,0,3-0.6,4.1-1.7
	l0.9-0.9l7.5,7.5C37.3,34,37.2,34,37,34z M39,32c0,0.2,0,0.3-0.1,0.5L31.4,25l7.5-7.5c0,0.2,0.1,0.3,0.1,0.5V32z"/>
<path class="st1" d="M39,18v14c0,0.2,0,0.3-0.1,0.5L31.4,25l7.5-7.5C39,17.7,39,17.8,39,18z"/>
<path class="st1" d="M37.5,33.9C37.3,34,37.2,34,37,34H13c-0.2,0-0.3,0-0.5-0.1l7.5-7.5l0.9,0.9C22,28.4,23.5,29,25,29
	c1.5,0,3-0.6,4.1-1.7l0.9-0.9L37.5,33.9z"/>
<path class="st1" d="M18.6,25l-7.5,7.5c0-0.2-0.1-0.3-0.1-0.5V18c0-0.2,0-0.3,0.1-0.5L18.6,25z"/>
<path class="st1" d="M37.5,16.1l-9.8,9.8c-1.5,1.5-3.9,1.5-5.4,0l-9.8-9.8c0.2,0,0.3-0.1,0.5-0.1h24C37.2,16,37.3,16,37.5,16.1z"/>
</svg>
