<?xml version="1.0" encoding="utf-8"?>
<!-- Generator: Adobe Illustrator 24.3.0, SVG Export Plug-In . SVG Version: 6.00 Build 0)  -->
<svg version="1.1" id="Layer_1" xmlns="http://www.w3.org/2000/svg" xmlns:xlink="http://www.w3.org/1999/xlink" x="0px" y="0px"
	 viewBox="0 0 500 500" style="enable-background:new 0 0 500 500;" xml:space="preserve">
<style type="text/css">
	.st0{fill:#FFFFFF;}
	.st1{fill:#6807F9;}
	.st2{fill:#9852F9;}
	.st3{fill:#C299FC;}
</style>
<path class="st0" d="M285.23,102.5H148.51c-34.73,0-62.99,28.29-62.99,62.99v84.16c2.84,1.8,4.71,4.93,4.71,8.52
	c0,5.61-4.57,10.14-10.17,10.14c-5.61,0-10.14-4.53-10.14-10.14c0-3.7,2.01-6.97,5-8.74v-83.95c0-40.55,33-73.56,73.59-73.56h130.65
	L285.23,102.5z"/>
<g>
	<polygon class="st1" points="181.56,389.45 10.68,457.58 81.74,334.51 128.13,255.36 	"/>
	<path class="st2" d="M375.58,259l36.17,62.66v44.08c0,4.35-0.43,8.59-1.29,12.69L261.58,230.74l-7.55-128.24l-0.65-10.57
		l-2.91-49.68l28.69,49.68l6.08,10.57L375.58,259z"/>
	<path class="st2" d="M490.23,457.59l-71.04-70.5c2.05-6.76,3.16-13.95,3.16-21.36v-25.71L490.23,457.59z"/>
	<path class="st0" d="M422.35,165.49v200.25c0,7.41-1.11,14.6-3.16,21.36c-6.22,20.49-21.18,37.25-40.52,45.87
		c-9.13,4.1-19.27,6.36-29.95,6.36h-91.35c-1.8,2.95-5.03,4.89-8.74,4.89c-5.68,0-10.28-4.6-10.28-10.28
		c0-5.68,4.6-10.28,10.28-10.28c3.77,0,7.08,2.05,8.84,5.07h91.24c2.8,0,5.57-0.18,8.27-0.54c26.64-3.52,48.14-23.73,53.46-49.76
		c0.86-4.1,1.29-8.34,1.29-12.69V165.49c0-34.69-28.29-62.99-63.02-62.99h-63.49l-6.08-10.57h69.57
		C389.31,91.93,422.35,124.94,422.35,165.49z"/>
	<path class="st1" d="M356.99,428.19l-175.44-38.76l80.03-158.69l148.87,147.69C405.13,404.46,383.63,424.66,356.99,428.19z"/>
	<path class="st1" d="M490.23,457.59l-111.56-24.63c19.34-8.63,34.3-25.38,40.52-45.87L490.23,457.59z"/>
	<polygon class="st3" points="261.58,230.76 128.13,255.36 250.46,42.26 	"/>
	<polygon class="st2" points="261.58,230.76 181.56,389.45 128.13,255.36 	"/>
</g>
</svg>
