<?xml version="1.0" encoding="utf-8"?>
<!-- Generator: Adobe Illustrator 24.3.0, SVG Export Plug-In . SVG Version: 6.00 Build 0)  -->
<svg version="1.1"
	 id="svg11699" xmlns:cc="http://creativecommons.org/ns#" xmlns:dc="http://purl.org/dc/elements/1.1/" xmlns:inkscape="http://www.inkscape.org/namespaces/inkscape" xmlns:ns1="http://sozi.baierouge.fr" xmlns:rdf="http://www.w3.org/1999/02/22-rdf-syntax-ns#" xmlns:sodipodi="http://sodipodi.sourceforge.net/DTD/sodipodi-0.dtd" xmlns:svg="http://www.w3.org/2000/svg"
	 xmlns="http://www.w3.org/2000/svg" xmlns:xlink="http://www.w3.org/1999/xlink" x="0px" y="0px" viewBox="0 0 724.2 806.8"
	 style="enable-background:new 0 0 724.2 806.8;" xml:space="preserve">
<style type="text/css">
	.st0{fill:#FFFFFF;}
</style>
<g id="layer1" transform="translate(1193.5 499.59)">
	<g id="g11676" transform="matrix(0 -17.254 17.254 0 10443 -2252.9)">
		<path id="path11666" class="st0" d="M-133.3-640c0,4.2-3.4,7.5-7.5,7.5s-7.5-3.4-7.5-7.5c0-4.2,3.4-7.5,7.5-7.5
			S-133.3-644.1-133.3-640z"/>
		<path id="path11668" class="st0" d="M-101.6-640c0,4.2-3.4,7.5-7.5,7.5s-7.5-3.4-7.5-7.5c0-4.2,3.4-7.5,7.5-7.5
			S-101.6-644.1-101.6-640z"/>
		<path id="path11670" class="st0" d="M-117.4-666.8c0,4.2-3.4,7.5-7.5,7.5s-7.5-3.4-7.5-7.5c0-4.2,3.4-7.5,7.5-7.5
			S-117.4-671-117.4-666.8z"/>
		
			<rect id="rect11672" x="-133.5" y="-669.8" transform="matrix(-0.866 -0.5 0.5 -0.866 81.7023 -1289.938)" class="st0" width="3" height="27.7"/>
		
			<rect id="rect11674" x="-132.1" y="-657.2" transform="matrix(-0.5 -0.866 0.866 -0.5 390.4082 -1086.0098)" class="st0" width="27.7" height="3"/>
	</g>
</g>
</svg>
